<svg id="visual" viewBox="0 0 900 600" width="900" height="600" xmlns="http://www.w3.org/2000/svg" xmlns:xlink="http://www.w3.org/1999/xlink" version="1.1"><rect x="0" y="0" width="900" height="600" fill="#ffffff"></rect><path d="M0 379L18.8 381.2C37.7 383.3 75.3 387.7 112.8 391.8C150.3 396 187.7 400 225.2 394.7C262.7 389.3 300.3 374.7 337.8 379.3C375.3 384 412.7 408 450.2 413.3C487.7 418.7 525.3 405.3 562.8 397.8C600.3 390.3 637.7 388.7 675.2 393.2C712.7 397.7 750.3 408.3 787.8 402.5C825.3 396.7 862.7 374.3 881.3 363.2L900 352L900 601L881.3 601C862.7 601 825.3 601 787.8 601C750.3 601 712.7 601 675.2 601C637.7 601 600.3 601 562.8 601C525.3 601 487.7 601 450.2 601C412.7 601 375.3 601 337.8 601C300.3 601 262.7 601 225.2 601C187.7 601 150.3 601 112.8 601C75.3 601 37.7 601 18.8 601L0 601Z" fill="#fff5fe"></path><path d="M0 460L18.8 458.2C37.7 456.3 75.3 452.7 112.8 452.2C150.3 451.7 187.7 454.3 225.2 458.5C262.7 462.7 300.3 468.3 337.8 459.3C375.3 450.3 412.7 426.7 450.2 417.2C487.7 407.7 525.3 412.3 562.8 415.3C600.3 418.3 637.7 419.7 675.2 430.7C712.7 441.7 750.3 462.3 787.8 472.2C825.3 482 862.7 481 881.3 480.5L900 480L900 601L881.3 601C862.7 601 825.3 601 787.8 601C750.3 601 712.7 601 675.2 601C637.7 601 600.3 601 562.8 601C525.3 601 487.7 601 450.2 601C412.7 601 375.3 601 337.8 601C300.3 601 262.7 601 225.2 601C187.7 601 150.3 601 112.8 601C75.3 601 37.7 601 18.8 601L0 601Z" fill="#f1e9fa"></path><path d="M0 469L18.8 478.3C37.7 487.7 75.3 506.3 112.8 510.7C150.3 515 187.7 505 225.2 502.3C262.7 499.7 300.3 504.3 337.8 497.7C375.3 491 412.7 473 450.2 468C487.7 463 525.3 471 562.8 478C600.3 485 637.7 491 675.2 491.7C712.7 492.3 750.3 487.7 787.8 482.7C825.3 477.7 862.7 472.3 881.3 469.7L900 467L900 601L881.3 601C862.7 601 825.3 601 787.8 601C750.3 601 712.7 601 675.2 601C637.7 601 600.3 601 562.8 601C525.3 601 487.7 601 450.2 601C412.7 601 375.3 601 337.8 601C300.3 601 262.7 601 225.2 601C187.7 601 150.3 601 112.8 601C75.3 601 37.7 601 18.8 601L0 601Z" fill="#dddef8"></path><path d="M0 547L18.8 545.2C37.7 543.3 75.3 539.7 112.8 534.7C150.3 529.7 187.7 523.3 225.2 520C262.7 516.7 300.3 516.3 337.8 524.7C375.3 533 412.7 550 450.2 549C487.7 548 525.3 529 562.8 529.3C600.3 529.7 637.7 549.3 675.2 553.8C712.7 558.3 750.3 547.7 787.8 544.5C825.3 541.3 862.7 545.7 881.3 547.8L900 550L900 601L881.3 601C862.7 601 825.3 601 787.8 601C750.3 601 712.7 601 675.2 601C637.7 601 600.3 601 562.8 601C525.3 601 487.7 601 450.2 601C412.7 601 375.3 601 337.8 601C300.3 601 262.7 601 225.2 601C187.7 601 150.3 601 112.8 601C75.3 601 37.7 601 18.8 601L0 601Z" fill="#c3d6f5"></path></svg>