<svg id="visual" viewBox="0 0 1920 1080" width="1920" height="1080" xmlns="http://www.w3.org/2000/svg" xmlns:xlink="http://www.w3.org/1999/xlink" version="1.1"><path d="M0 184L40 201.5C80 219 160 254 240 285.3C320 316.7 400 344.3 480 355.8C560 367.3 640 362.7 720 332.2C800 301.7 880 245.3 960 242.3C1040 239.3 1120 289.7 1200 304.7C1280 319.7 1360 299.3 1440 280.8C1520 262.3 1600 245.7 1680 256.5C1760 267.3 1840 305.7 1880 324.8L1920 344L1920 0L1880 0C1840 0 1760 0 1680 0C1600 0 1520 0 1440 0C1360 0 1280 0 1200 0C1120 0 1040 0 960 0C880 0 800 0 720 0C640 0 560 0 480 0C400 0 320 0 240 0C160 0 80 0 40 0L0 0Z" fill="#faf7ff"></path><path d="M0 294L40 271C80 248 160 202 240 203.2C320 204.3 400 252.7 480 247.8C560 243 640 185 720 168.3C800 151.7 880 176.3 960 205.3C1040 234.3 1120 267.7 1200 262.5C1280 257.3 1360 213.7 1440 203.2C1520 192.7 1600 215.3 1680 230C1760 244.7 1840 251.3 1880 254.7L1920 258L1920 0L1880 0C1840 0 1760 0 1680 0C1600 0 1520 0 1440 0C1360 0 1280 0 1200 0C1120 0 1040 0 960 0C880 0 800 0 720 0C640 0 560 0 480 0C400 0 320 0 240 0C160 0 80 0 40 0L0 0Z" fill="#f2f1ff"></path><path d="M0 145L40 132.2C80 119.3 160 93.7 240 92.7C320 91.7 400 115.3 480 126.3C560 137.3 640 135.7 720 130.8C800 126 880 118 960 131C1040 144 1120 178 1200 193.7C1280 209.3 1360 206.7 1440 191.5C1520 176.3 1600 148.7 1680 142.2C1760 135.7 1840 150.3 1880 157.7L1920 165L1920 0L1880 0C1840 0 1760 0 1680 0C1600 0 1520 0 1440 0C1360 0 1280 0 1200 0C1120 0 1040 0 960 0C880 0 800 0 720 0C640 0 560 0 480 0C400 0 320 0 240 0C160 0 80 0 40 0L0 0Z" fill="#e8edff"></path><path d="M0 106L40 92.8C80 79.7 160 53.3 240 41.3C320 29.3 400 31.7 480 50.2C560 68.7 640 103.3 720 103C800 102.7 880 67.3 960 65C1040 62.7 1120 93.3 1200 102.7C1280 112 1360 100 1440 91C1520 82 1600 76 1680 74.7C1760 73.3 1840 76.7 1880 78.3L1920 80L1920 0L1880 0C1840 0 1760 0 1680 0C1600 0 1520 0 1440 0C1360 0 1280 0 1200 0C1120 0 1040 0 960 0C880 0 800 0 720 0C640 0 560 0 480 0C400 0 320 0 240 0C160 0 80 0 40 0L0 0Z" fill="#dbe9ff"></path></svg>