<svg id="visual" viewBox="0 0 1920 1080" width="1920" height="1080" xmlns="http://www.w3.org/2000/svg" xmlns:xlink="http://www.w3.org/1999/xlink" version="1.1"><rect x="0" y="0" width="1920" height="1080" fill="#ffffff"></rect><path d="M0 230L40 251.8C80 273.7 160 317.3 240 356.5C320 395.7 400 430.3 480 444.8C560 459.3 640 453.7 720 415.5C800 377.3 880 306.7 960 303C1040 299.3 1120 362.7 1200 381.5C1280 400.3 1360 374.7 1440 351.3C1520 328 1600 307 1680 320.5C1760 334 1840 382 1880 406L1920 430L1920 0L1880 0C1840 0 1760 0 1680 0C1600 0 1520 0 1440 0C1360 0 1280 0 1200 0C1120 0 1040 0 960 0C880 0 800 0 720 0C640 0 560 0 480 0C400 0 320 0 240 0C160 0 80 0 40 0L0 0Z" fill="#fefbff"></path><path d="M0 368L40 339.3C80 310.7 160 253.3 240 254.8C320 256.3 400 316.7 480 310.5C560 304.3 640 231.7 720 210.7C800 189.7 880 220.3 960 256.5C1040 292.7 1120 334.3 1200 328C1280 321.7 1360 267.3 1440 254.3C1520 241.3 1600 269.7 1680 287.8C1760 306 1840 314 1880 318L1920 322L1920 0L1880 0C1840 0 1760 0 1680 0C1600 0 1520 0 1440 0C1360 0 1280 0 1200 0C1120 0 1040 0 960 0C880 0 800 0 720 0C640 0 560 0 480 0C400 0 320 0 240 0C160 0 80 0 40 0L0 0Z" fill="#f4f3ff"></path><path d="M0 182L40 165.8C80 149.7 160 117.3 240 116C320 114.7 400 144.3 480 158.2C560 172 640 170 720 164C800 158 880 148 960 164.2C1040 180.3 1120 222.7 1200 242.2C1280 261.7 1360 258.3 1440 239.3C1520 220.3 1600 185.7 1680 177.7C1760 169.7 1840 188.3 1880 197.7L1920 207L1920 0L1880 0C1840 0 1760 0 1680 0C1600 0 1520 0 1440 0C1360 0 1280 0 1200 0C1120 0 1040 0 960 0C880 0 800 0 720 0C640 0 560 0 480 0C400 0 320 0 240 0C160 0 80 0 40 0L0 0Z" fill="#e4ecff"></path><path d="M0 133L40 116.7C80 100.3 160 67.7 240 52.5C320 37.3 400 39.7 480 62.5C560 85.3 640 128.7 720 128.3C800 128 880 84 960 81.3C1040 78.7 1120 117.3 1200 129C1280 140.7 1360 125.3 1440 114C1520 102.7 1600 95.3 1680 93.8C1760 92.3 1840 96.7 1880 98.8L1920 101L1920 0L1880 0C1840 0 1760 0 1680 0C1600 0 1520 0 1440 0C1360 0 1280 0 1200 0C1120 0 1040 0 960 0C880 0 800 0 720 0C640 0 560 0 480 0C400 0 320 0 240 0C160 0 80 0 40 0L0 0Z" fill="#cde8ff"></path></svg>