<svg id="visual" viewBox="0 0 900 600" width="900" height="600" xmlns="http://www.w3.org/2000/svg" xmlns:xlink="http://www.w3.org/1999/xlink" version="1.1"><rect x="0" y="0" width="900" height="600" fill="#ffffff"></rect><path d="M0 183L18.8 180.7C37.7 178.3 75.3 173.7 112.8 181.7C150.3 189.7 187.7 210.3 225.2 202.7C262.7 195 300.3 159 337.8 148C375.3 137 412.7 151 450.2 167C487.7 183 525.3 201 562.8 196.3C600.3 191.7 637.7 164.3 675.2 164.5C712.7 164.7 750.3 192.3 787.8 197.7C825.3 203 862.7 186 881.3 177.5L900 169L900 0L881.3 0C862.7 0 825.3 0 787.8 0C750.3 0 712.7 0 675.2 0C637.7 0 600.3 0 562.8 0C525.3 0 487.7 0 450.2 0C412.7 0 375.3 0 337.8 0C300.3 0 262.7 0 225.2 0C187.7 0 150.3 0 112.8 0C75.3 0 37.7 0 18.8 0L0 0Z" fill="#ffe7fd"></path><path d="M0 171L18.8 159C37.7 147 75.3 123 112.8 109.8C150.3 96.7 187.7 94.3 225.2 90.5C262.7 86.7 300.3 81.3 337.8 78C375.3 74.7 412.7 73.3 450.2 86.3C487.7 99.3 525.3 126.7 562.8 142.3C600.3 158 637.7 162 675.2 156.5C712.7 151 750.3 136 787.8 124.8C825.3 113.7 862.7 106.3 881.3 102.7L900 99L900 0L881.3 0C862.7 0 825.3 0 787.8 0C750.3 0 712.7 0 675.2 0C637.7 0 600.3 0 562.8 0C525.3 0 487.7 0 450.2 0C412.7 0 375.3 0 337.8 0C300.3 0 262.7 0 225.2 0C187.7 0 150.3 0 112.8 0C75.3 0 37.7 0 18.8 0L0 0Z" fill="#eee1fd"></path><path d="M0 96L18.8 94.3C37.7 92.7 75.3 89.3 112.8 91.3C150.3 93.3 187.7 100.7 225.2 106.8C262.7 113 300.3 118 337.8 113.7C375.3 109.3 412.7 95.7 450.2 96.7C487.7 97.7 525.3 113.3 562.8 109.8C600.3 106.3 637.7 83.7 675.2 76C712.7 68.3 750.3 75.7 787.8 83.5C825.3 91.3 862.7 99.7 881.3 103.8L900 108L900 0L881.3 0C862.7 0 825.3 0 787.8 0C750.3 0 712.7 0 675.2 0C637.7 0 600.3 0 562.8 0C525.3 0 487.7 0 450.2 0C412.7 0 375.3 0 337.8 0C300.3 0 262.7 0 225.2 0C187.7 0 150.3 0 112.8 0C75.3 0 37.7 0 18.8 0L0 0Z" fill="#d9dbfa"></path><path d="M0 52L18.8 47.3C37.7 42.7 75.3 33.3 112.8 39.2C150.3 45 187.7 66 225.2 67.5C262.7 69 300.3 51 337.8 37.2C375.3 23.3 412.7 13.7 450.2 15.2C487.7 16.7 525.3 29.3 562.8 30.7C600.3 32 637.7 22 675.2 22.2C712.7 22.3 750.3 32.7 787.8 40.5C825.3 48.3 862.7 53.7 881.3 56.3L900 59L900 0L881.3 0C862.7 0 825.3 0 787.8 0C750.3 0 712.7 0 675.2 0C637.7 0 600.3 0 562.8 0C525.3 0 487.7 0 450.2 0C412.7 0 375.3 0 337.8 0C300.3 0 262.7 0 225.2 0C187.7 0 150.3 0 112.8 0C75.3 0 37.7 0 18.8 0L0 0Z" fill="#c3d6f5"></path></svg>