<svg id="visual" viewBox="0 0 900 600" width="900" height="600" xmlns="http://www.w3.org/2000/svg" xmlns:xlink="http://www.w3.org/1999/xlink" version="1.1"><path d="M0 55L25 54C50 53 100 51 150 54C200 57 250 65 300 69C350 73 400 73 450 68C500 63 550 53 600 48C650 43 700 43 750 48C800 53 850 63 875 68L900 73L900 0L875 0C850 0 800 0 750 0C700 0 650 0 600 0C550 0 500 0 450 0C400 0 350 0 300 0C250 0 200 0 150 0C100 0 50 0 25 0L0 0Z" fill="#ffffff"></path><path d="M0 169L25 178C50 187 100 205 150 209C200 213 250 203 300 200C350 197 400 201 450 203C500 205 550 205 600 203C650 201 700 197 750 204C800 211 850 229 875 238L900 247L900 71L875 66C850 61 800 51 750 46C700 41 650 41 600 46C550 51 500 61 450 66C400 71 350 71 300 67C250 63 200 55 150 52C100 49 50 51 25 52L0 53Z" fill="#f9f0fe"></path><path d="M0 343L25 350C50 357 100 371 150 382C200 393 250 401 300 406C350 411 400 413 450 404C500 395 550 375 600 362C650 349 700 343 750 344C800 345 850 353 875 357L900 361L900 245L875 236C850 227 800 209 750 202C700 195 650 199 600 201C550 203 500 203 450 201C400 199 350 195 300 198C250 201 200 211 150 207C100 203 50 185 25 176L0 167Z" fill="#f2e2fd"></path><path d="M0 445L25 448C50 451 100 457 150 462C200 467 250 471 300 478C350 485 400 495 450 494C500 493 550 481 600 475C650 469 700 469 750 468C800 467 850 465 875 464L900 463L900 359L875 355C850 351 800 343 750 342C700 341 650 347 600 360C550 373 500 393 450 402C400 411 350 409 300 404C250 399 200 391 150 380C100 369 50 355 25 348L0 341Z" fill="#f2e2fd"></path><path d="M0 517L25 521C50 525 100 533 150 534C200 535 250 529 300 530C350 531 400 539 450 543C500 547 550 547 600 544C650 541 700 535 750 533C800 531 850 533 875 534L900 535L900 461L875 462C850 463 800 465 750 466C700 467 650 467 600 473C550 479 500 491 450 492C400 493 350 483 300 476C250 469 200 465 150 460C100 455 50 449 25 446L0 443Z" fill="#f9f0fe"></path><path d="M0 601L25 601C50 601 100 601 150 601C200 601 250 601 300 601C350 601 400 601 450 601C500 601 550 601 600 601C650 601 700 601 750 601C800 601 850 601 875 601L900 601L900 533L875 532C850 531 800 529 750 531C700 533 650 539 600 542C550 545 500 545 450 541C400 537 350 529 300 528C250 527 200 533 150 532C100 531 50 523 25 519L0 515Z" fill="#ffffff"></path></svg>