<svg id="visual" viewBox="0 0 900 200" width="900" height="200" xmlns="http://www.w3.org/2000/svg" xmlns:xlink="http://www.w3.org/1999/xlink" version="1.1"><rect x="0" y="0" width="900" height="200" fill="#ffffff"></rect><path d="M0 133L18.8 119.3C37.7 105.7 75.3 78.3 112.8 68.2C150.3 58 187.7 65 225.2 81C262.7 97 300.3 122 337.8 132.7C375.3 143.3 412.7 139.7 450.2 126.2C487.7 112.7 525.3 89.3 562.8 76.2C600.3 63 637.7 60 675.2 67.7C712.7 75.3 750.3 93.7 787.8 100.3C825.3 107 862.7 102 881.3 99.5L900 97L900 0L881.3 0C862.7 0 825.3 0 787.8 0C750.3 0 712.7 0 675.2 0C637.7 0 600.3 0 562.8 0C525.3 0 487.7 0 450.2 0C412.7 0 375.3 0 337.8 0C300.3 0 262.7 0 225.2 0C187.7 0 150.3 0 112.8 0C75.3 0 37.7 0 18.8 0L0 0Z" fill="#fff5fe"></path></svg>