<svg id="visual" viewBox="0 0 1920 1080" width="1920" height="1080" xmlns="http://www.w3.org/2000/svg" xmlns:xlink="http://www.w3.org/1999/xlink" version="1.1"><path d="M0 44L64 42.2C128 40.3 256 36.7 384 56.5C512 76.3 640 119.7 768 136C896 152.3 1024 141.7 1152 125.5C1280 109.3 1408 87.7 1536 80.3C1664 73 1792 80 1856 83.5L1920 87L1920 0L1856 0C1792 0 1664 0 1536 0C1408 0 1280 0 1152 0C1024 0 896 0 768 0C640 0 512 0 384 0C256 0 128 0 64 0L0 0Z" fill="#ffffff"></path><path d="M0 239L64 219.2C128 199.3 256 159.7 384 175.8C512 192 640 264 768 296.3C896 328.7 1024 321.3 1152 308.7C1280 296 1408 278 1536 247.5C1664 217 1792 174 1856 152.5L1920 131L1920 85L1856 81.5C1792 78 1664 71 1536 78.3C1408 85.7 1280 107.3 1152 123.5C1024 139.7 896 150.3 768 134C640 117.7 512 74.3 384 54.5C256 34.7 128 38.3 64 40.2L0 42Z" fill="#f6f7ff"></path><path d="M0 357L64 366C128 375 256 393 384 405.7C512 418.3 640 425.7 768 424C896 422.3 1024 411.7 1152 429.7C1280 447.7 1408 494.3 1536 519.5C1664 544.7 1792 548.3 1856 550.2L1920 552L1920 129L1856 150.5C1792 172 1664 215 1536 245.5C1408 276 1280 294 1152 306.7C1024 319.3 896 326.7 768 294.3C640 262 512 190 384 173.8C256 157.7 128 197.3 64 217.2L0 237Z" fill="#edf0ff"></path><path d="M0 487L64 492.3C128 497.7 256 508.3 384 506.5C512 504.7 640 490.3 768 486.8C896 483.3 1024 490.7 1152 517.7C1280 544.7 1408 591.3 1536 609.3C1664 627.3 1792 616.7 1856 611.3L1920 606L1920 550L1856 548.2C1792 546.3 1664 542.7 1536 517.5C1408 492.3 1280 445.7 1152 427.7C1024 409.7 896 420.3 768 422C640 423.7 512 416.3 384 403.7C256 391 128 373 64 364L0 355Z" fill="#e5eaff"></path><path d="M0 854L64 823.5C128 793 256 732 384 714C512 696 640 721 768 748C896 775 1024 804 1152 845.5C1280 887 1408 941 1536 937.3C1664 933.7 1792 872.3 1856 841.7L1920 811L1920 604L1856 609.3C1792 614.7 1664 625.3 1536 607.3C1408 589.3 1280 542.7 1152 515.7C1024 488.7 896 481.3 768 484.8C640 488.3 512 502.7 384 504.5C256 506.3 128 495.7 64 490.3L0 485Z" fill="#e5eaff"></path><path d="M0 973L64 940.7C128 908.3 256 843.7 384 822C512 800.3 640 821.7 768 839.7C896 857.7 1024 872.3 1152 901.2C1280 930 1408 973 1536 980.2C1664 987.3 1792 958.7 1856 944.3L1920 930L1920 809L1856 839.7C1792 870.3 1664 931.7 1536 935.3C1408 939 1280 885 1152 843.5C1024 802 896 773 768 746C640 719 512 694 384 712C256 730 128 791 64 821.5L0 852Z" fill="#edf0ff"></path><path d="M0 1038L64 1030.8C128 1023.7 256 1009.3 384 996.7C512 984 640 973 768 971.2C896 969.3 1024 976.7 1152 992.8C1280 1009 1408 1034 1536 1039.3C1664 1044.7 1792 1030.3 1856 1023.2L1920 1016L1920 928L1856 942.3C1792 956.7 1664 985.3 1536 978.2C1408 971 1280 928 1152 899.2C1024 870.3 896 855.7 768 837.7C640 819.7 512 798.3 384 820C256 841.7 128 906.3 64 938.7L0 971Z" fill="#f6f7ff"></path><path d="M0 1081L64 1081C128 1081 256 1081 384 1081C512 1081 640 1081 768 1081C896 1081 1024 1081 1152 1081C1280 1081 1408 1081 1536 1081C1664 1081 1792 1081 1856 1081L1920 1081L1920 1014L1856 1021.2C1792 1028.3 1664 1042.7 1536 1037.3C1408 1032 1280 1007 1152 990.8C1024 974.7 896 967.3 768 969.2C640 971 512 982 384 994.7C256 1007.3 128 1021.7 64 1028.8L0 1036Z" fill="#ffffff"></path></svg>